#!OML:ASF C:\Vicon Data\Big\jianyuan-12\jianyuan\Session 1\Capture.male.ASF
:FULLY-SPECIFIED
:DEGREES
28
root -8.177392 17.108687 -21.261955 6.841921 5.670611 5.034214
lowerback -12.684354 -3.077880 -8.404017 
upperback 1.561696 -2.772044 -0.327595 
thorax 9.242148 -1.764763 3.809718 
lowerneck -5.017198 -4.674599 -5.865165 
upperneck 9.007820 -6.594619 7.459928 
head 3.947545 -3.145908 2.888701 
rclavicle 0.000000 0.000000 
rhumerus -44.936554 -33.500146 -70.887286 
rradius 32.030227 
rwrist 40.484318 
rhand -18.737626 -4.398591 
rfingers 0.000000 
rthumb 7.558382 -34.243559 
lclavicle 0.000000 0.000000 
lhumerus -26.101528 24.426912 81.799064 
lradius 32.654571 
lwrist -41.683204 
lhand -9.959898 4.460045 
lfingers 0.000000 
lthumb 16.022230 33.817513 
rfemur -31.005402 2.829134 13.526461 
rtibia 33.083785 
rfoot -15.866961 -6.644476 
rtoes -0.585504 
lfemur 5.344018 0.259722 -24.386679 
ltibia 30.371738 
lfoot -5.035319 2.982128 
ltoes -27.974036 
29
root -8.194363 17.120207 -21.152140 6.972440 5.900499 4.820681
lowerback -12.798473 -3.069790 -8.144068 
upperback 1.455603 -2.795287 -0.338615 
thorax 9.177836 -1.757147 3.645685 
lowerneck -4.994007 -4.675028 -5.757754 
upperneck 9.109352 -6.613918 7.452649 
head 3.971884 -3.152897 2.867774 
rclavicle 0.000000 0.000000 
rhumerus -44.775884 -33.356959 -71.197566 
rradius 32.136818 
rwrist 40.343120 
rhand -18.633259 -4.463545 
rfingers 0.000000 
rthumb 7.659104 -34.304884 
lclavicle 0.000000 0.000000 
lhumerus -26.672826 24.738982 81.385276 
lradius 32.353471 
lwrist -42.109568 
lhand -9.998022 4.452913 
lfingers 0.000000 
lthumb 15.985594 33.813325 
rfemur -30.731245 2.651935 13.927597 
rtibia 33.148214 
rfoot -16.246962 -6.538039 
rtoes -0.540819 
lfemur 4.293393 0.609748 -23.875428 
ltibia 32.302699 
lfoot -4.144769 3.128533 
ltoes -27.545164 
30
root -8.217633 17.129378 -21.042058 6.966385 6.033412 4.616663
lowerback -12.856451 -3.063386 -8.057545 
upperback 1.432618 -2.803340 -0.237276 
thorax 9.187472 -1.758791 3.703724 
lowerneck -4.980143 -4.761010 -5.904573 
upperneck 9.189727 -6.727478 7.485997 
head 4.007634 -3.212002 2.894510 
rclavicle 0.000000 0.000000 
rhumerus -44.480745 -33.156979 -71.368764 
rradius 32.066446 
rwrist 40.951673 
rhand -19.074188 -4.581630 
rfingers 0.000000 
rthumb 7.233540 -34.437999 
lclavicle 0.000000 0.000000 
lhumerus -27.069300 25.170208 81.136777 
lradius 32.054082 
lwrist -42.307575 
lhand -9.724779 4.419942 
lfingers 0.000000 
lthumb 16.248670 33.759062 
rfemur -30.325463 2.598353 14.328436 
rtibia 33.209012 
rfoot -16.620894 -6.411699 
rtoes -0.515063 
lfemur 3.352819 1.028728 -23.373680 
ltibia 34.204864 
lfoot -3.208377 3.239413 
ltoes -27.920202 
31
root -8.235600 17.136792 -20.930433 6.857669 6.006458 4.412314
lowerback -12.885140 -2.952039 -7.839897 
upperback 1.454127 -2.684521 -0.246349 
thorax 9.199084 -1.691077 3.596406 
lowerneck -4.950780 -4.773915 -5.964007 
upperneck 9.179809 -6.751489 7.582422 
head 4.006574 -3.222458 2.932946 
rclavicle 0.000000 0.000000 
rhumerus -44.191353 -32.912390 -71.820637 
rradius 32.331836 
rwrist 40.294130 
rhand -18.981854 -4.865839 
rfingers 0.000000 
rthumb 7.322645 -34.719160 
lclavicle 0.000000 0.000000 
lhumerus -27.532606 25.626766 80.755091 
lradius 31.745133 
lwrist -43.137998 
lhand -9.685745 4.342645 
lfingers 0.000000 
lthumb 16.286248 33.678735 
rfemur -29.826578 2.549582 14.726349 
rtibia 33.247532 
rfoot -16.928925 -6.147539 
rtoes -0.538010 
lfemur 2.599113 1.690894 -22.840931 
ltibia 36.096277 
lfoot -2.439601 3.251411 
ltoes -26.496238 
32
root -8.254043 17.145088 -20.830666 6.916402 6.181607 4.268637
lowerback -12.904700 -2.933512 -7.729539 
upperback 1.396058 -2.680093 -0.221793 
thorax 9.140746 -1.680710 3.562917 
lowerneck -4.931904 -4.810726 -6.026134 
upperneck 9.197380 -6.806197 7.652055 
head 4.016937 -3.248879 2.961287 
rclavicle 0.000000 0.000000 
rhumerus -43.782855 -32.409542 -72.355237 
rradius 32.540105 
rwrist 39.126281 
rhand -18.706738 -4.745328 
rfingers 0.000000 
rthumb 7.588236 -34.589218 
lclavicle 0.000000 0.000000 
lhumerus -27.939048 25.948639 80.404998 
lradius 31.440878 
lwrist -43.768406 
lhand -9.478141 4.336885 
lfingers 0.000000 
lthumb 16.486131 33.656450 
rfemur -29.482667 2.489049 15.019880 
rtibia 33.234772 
rfoot -17.309277 -6.097720 
rtoes -0.466302 
lfemur 1.546098 2.139292 -22.387930 
ltibia 38.018276 
lfoot -1.505660 3.165249 
ltoes -26.931885 
33
root -8.271633 17.155134 -20.733438 6.875758 6.321667 3.988150
lowerback -12.893107 -2.880587 -7.411947 
upperback 1.399803 -2.660010 -0.224886 
thorax 9.117699 -1.654120 3.386016 
lowerneck -4.919909 -4.883229 -5.803479 
upperneck 9.190283 -6.923940 7.637184 
head 4.013100 -3.301235 2.913742 
rclavicle 0.000000 0.000000 
rhumerus -43.508125 -32.302631 -72.701341 
rradius 32.597835 
rwrist 39.302939 
rhand -19.007501 -4.753275 
rfingers 0.000000 
rthumb 7.297880 -34.607387 
lclavicle 0.000000 0.000000 
lhumerus -28.302844 26.082313 80.049890 
lradius 31.215082 
lwrist -44.178673 
lhand -9.378086 4.372542 
lfingers 0.000000 
lthumb 16.582427 33.684103 
rfemur -29.032716 2.440586 15.461806 
rtibia 33.190617 
rfoot -17.654254 -5.986317 
rtoes -0.321840 
lfemur 0.537172 2.469094 -21.896224 
ltibia 39.980595 
lfoot -0.741358 3.368886 
ltoes -27.506008 
34
root -8.289974 17.162359 -20.637058 6.882101 6.387866 3.689499
lowerback -12.918469 -2.812409 -7.158188 
upperback 1.369268 -2.613219 -0.159326 
thorax 9.082407 -1.618678 3.324549 
lowerneck -4.904990 -4.899221 -5.880356 
upperneck 9.196145 -6.950669 7.730435 
head 4.020075 -3.313256 2.953379 
rclavicle 0.000000 0.000000 
rhumerus -43.233809 -31.995913 -73.042378 
rradius 32.738639 
rwrist 39.510416 
rhand -18.938295 -4.838700 
rfingers 0.000000 
rthumb 7.364732 -34.690536 
lclavicle 0.000000 0.000000 
lhumerus -28.700707 26.438122 79.728684 
lradius 30.962554 
lwrist -44.797296 
lhand -9.219427 4.233350 
lfingers 0.000000 
lthumb 16.735190 33.532028 
rfemur -28.648803 2.296824 15.953693 
rtibia 33.117436 
rfoot -17.916449 -5.760549 
rtoes -0.514959 
lfemur -0.511691 2.874483 -21.371908 
ltibia 41.921851 
lfoot 0.037335 3.738889 
ltoes -28.067283 
35
root -8.305582 17.165396 -20.543628 6.819651 6.576193 3.524389
lowerback -12.854831 -2.787248 -7.005882 
upperback 1.380295 -2.609404 -0.144970 
thorax 9.049856 -1.608867 3.257288 
lowerneck -4.922176 -4.920200 -5.936395 
upperneck 9.198549 -6.989414 7.868578 
head 4.033136 -3.327918 3.001916 
rclavicle 0.000000 0.000000 
rhumerus -42.870045 -31.600710 -73.510568 
rradius 32.958199 
rwrist 38.962854 
rhand -18.937032 -4.862334 
rfingers 0.000000 
rthumb 7.365945 -34.714059 
lclavicle 0.000000 0.000000 
lhumerus -29.104043 26.665704 79.465689 
lradius 30.802723 
lwrist -45.336297 
lhand -9.145350 4.300679 
lfingers 0.000000 
lthumb 16.806516 33.593322 
rfemur -28.169441 2.253640 16.263903 
rtibia 33.076094 
rfoot -18.315456 -5.722614 
rtoes -0.644460 
lfemur -1.458761 3.017675 -21.022713 
ltibia 43.800539 
lfoot 0.712391 4.258069 
ltoes -26.660914 
36
root -8.316634 17.167107 -20.453432 6.832966 6.728899 3.269038
lowerback -12.852513 -2.761762 -6.707097 
upperback 1.349185 -2.626358 -0.110976 
thorax 9.001735 -1.600917 3.123298 
lowerneck -4.778202 -4.959503 -5.943209 
upperneck 9.041380 -7.041231 7.902437 
head 3.966692 -3.356940 3.014844 
rclavicle 0.000000 0.000000 
rhumerus -42.483128 -31.133646 -74.035060 
rradius 33.239371 
rwrist 38.095741 
rhand -18.781664 -4.805474 
rfingers 0.000000 
rthumb 7.515924 -34.651977 
lclavicle 0.000000 0.000000 
lhumerus -29.475835 26.977019 79.100470 
lradius 30.573378 
lwrist -45.719432 
lhand -9.064700 4.219038 
lfingers 0.000000 
lthumb 16.884168 33.505024 
rfemur -27.815751 2.140730 16.656761 
rtibia 33.042367 
rfoot -18.636541 -5.561566 
rtoes -0.699400 
lfemur -2.480500 3.251321 -20.631177 
ltibia 45.631923 
lfoot 1.099578 4.647662 
ltoes -24.348470 
37
root -8.333365 17.168713 -20.364613 6.780293 6.791964 3.079556
lowerback -12.802727 -2.683397 -6.585993 
upperback 1.362527 -2.547636 -0.063490 
thorax 8.974954 -1.557779 3.124814 
lowerneck -4.835182 -5.006925 -6.009551 
upperneck 9.071838 -7.106787 7.974065 
head 3.994975 -3.386543 3.041776 
rclavicle 0.000000 0.000000 
rhumerus -42.126224 -30.795684 -74.407654 
rradius 33.460337 
rwrist 37.580187 
rhand -18.637565 -4.810026 
rfingers 0.000000 
rthumb 7.654969 -34.651500 
lclavicle 0.000000 0.000000 
lhumerus -29.810013 27.207449 78.910312 
lradius 30.400942 
lwrist -46.262430 
lhand -8.986561 4.255792 
lfingers 0.000000 
lthumb 16.959374 33.535402 
rfemur -27.405680 1.984156 17.014568 
rtibia 33.005879 
rfoot -18.861418 -5.327211 
rtoes -0.988535 
lfemur -3.427004 3.619507 -20.272789 
ltibia 47.402661 
lfoot 1.283981 5.113978 
ltoes -23.038523 
38
root -8.345300 17.169924 -20.279837 6.707449 7.040147 2.846061
lowerback -12.688111 -2.640685 -6.326826 
upperback 1.376151 -2.539812 -0.052969 
thorax 8.909935 -1.540045 2.995671 
lowerneck -4.846574 -5.086512 -5.947770 
upperneck 9.049469 -7.217626 7.973126 
head 3.995996 -3.439109 3.024442 
rclavicle 0.000000 0.000000 
rhumerus -41.793992 -30.374340 -74.908176 
rradius 33.722452 
rwrist 37.049170 
rhand -18.697734 -4.885958 
rfingers 0.000000 
rthumb 7.596890 -34.729517 
lclavicle 0.000000 0.000000 
lhumerus -30.115682 27.336167 78.664983 
lradius 30.253086 
lwrist -46.619116 
lhand -8.864892 4.281145 
lfingers 0.000000 
lthumb 17.076494 33.550655 
rfemur -26.959635 1.812541 17.394910 
rtibia 32.968096 
rfoot -19.187472 -5.231315 
rtoes -1.176953 
lfemur -4.365414 3.575467 -19.976164 
ltibia 49.119486 
lfoot 1.194226 5.798019 
ltoes -22.579813 
